<svg width="37" height="43" viewBox="0 0 37 43" fill="none" xmlns="http://www.w3.org/2000/svg">
<path d="M26.3657 35.5613H26.3674L26.3761 35.5701C26.4023 35.5979 26.4284 35.6275 26.451 35.6589C26.8395 36.124 27.1931 36.6326 27.5136 37.1883L27.9264 37.9025C28.172 38.3275 28.0275 38.8727 27.6024 39.1184C27.2628 39.3152 26.8465 39.2612 26.566 39.0139C26.4214 39.8761 26.0034 40.6495 25.4094 41.2452C24.6603 41.996 23.6274 42.4611 22.4916 42.4611H4.13185C2.99785 42.4611 1.9649 41.9943 1.21587 41.2452C0.465104 40.4979 0 39.465 0 38.3293V4.13185C0 2.99785 0.465104 1.9649 1.21239 1.21587C1.96142 0.465104 2.99437 0 4.13011 0H22.4899C23.6239 0 24.6569 0.466843 25.4059 1.21587C26.1566 1.96316 26.6217 2.99611 26.6217 4.13185V13.817C27.0903 13.7351 27.5676 13.7595 28.017 13.8797C28.7904 14.087 29.4889 14.5782 29.9401 15.3098C31.0706 17.1719 32.3213 19.2866 33.3438 21.2027C33.8019 22.0058 34.1381 22.8035 34.3576 23.6275C34.5823 24.4688 34.692 25.3468 34.692 26.2926V27.4667C34.6955 28.254 34.7861 28.9786 34.9707 29.6702C35.1571 30.3669 35.4428 31.0393 35.833 31.7152L36.5349 32.9345C36.7788 33.3595 36.6325 33.903 36.2075 34.1469C35.7824 34.3908 35.2389 34.2444 34.9951 33.8194L34.2931 32.607C33.821 31.7901 33.4761 30.9766 33.2497 30.13C33.0215 29.28 32.9118 28.4038 32.9118 27.4666L32.9152 26.2926C32.9152 25.5157 32.8247 24.7893 32.6365 24.0891C32.4536 23.4045 32.1767 22.7461 31.8022 22.0876L28.449 16.2852C28.2487 15.935 27.9212 15.6999 27.5554 15.6024C27.2105 15.51 26.8325 15.5397 26.4981 15.7121C26.4301 15.7539 26.4162 15.7417 26.4197 15.8149L28.233 18.959C28.4769 19.3841 28.3305 19.9275 27.9055 20.1714C27.4805 20.4153 26.937 20.269 26.6931 19.8439L24.8815 16.7067C24.6743 16.3305 24.3677 16.0692 23.9461 15.9577C23.5995 15.8637 23.2215 15.895 22.887 16.0675C22.8452 16.0936 22.8069 16.1023 22.8069 16.1563L25.0766 20.0965C25.3205 20.5215 25.1741 21.065 24.7491 21.3089C24.3241 21.5528 23.7806 21.4064 23.5367 20.9814L21.274 17.0621C21.0336 16.7032 20.8054 16.4803 20.3682 16.3636C20.0216 16.2695 19.6418 16.3009 19.3074 16.4751C19.2273 16.5238 19.2064 16.529 19.2569 16.6196L21.5963 20.673C21.8401 21.0981 21.6938 21.6416 21.2688 21.8854C20.8438 22.1293 20.3003 21.983 20.0564 21.5579C18.25 18.4312 16.4454 15.3047 14.6392 12.1778C14.472 11.8887 14.2003 11.6936 13.8972 11.6117C13.6132 11.5351 13.3032 11.5595 13.028 11.6971L12.9287 11.7563C12.6657 11.9235 12.4845 12.1848 12.4078 12.4705C12.3312 12.7579 12.3573 13.075 12.5036 13.3519L18.5255 23.7876C18.5516 23.8259 18.576 23.8659 18.5951 23.9078L20.0775 26.4771C20.3214 26.9021 20.175 27.4456 19.75 27.6895C19.325 27.9333 18.7815 27.787 18.5376 27.362L17.064 24.8083C17.0448 24.7804 17.0274 24.7526 17.01 24.723C16.9856 24.7125 16.9891 24.7125 16.9629 24.7125L16.9089 24.7421C16.5832 24.9459 16.362 25.2612 16.2679 25.6113C16.1704 25.9771 16.2104 26.3795 16.409 26.7261L17.6301 28.8391C18.0691 29.5899 18.5794 30.2361 19.1734 30.7866C19.7779 31.3474 20.4746 31.8143 21.2759 32.201L23.07 33.0632C24.0368 33.5301 24.8799 34.0945 25.6149 34.7773C25.7857 34.9358 25.9511 35.0996 26.1097 35.272L26.1131 35.2755C26.1428 35.3051 26.1724 35.3347 26.1968 35.3678L26.364 35.5577L26.3657 35.5613ZM16.1075 23.1538L10.9896 14.2874C10.575 13.5732 10.4914 12.7528 10.6883 12.0125C10.8816 11.2896 11.3432 10.6381 12.0278 10.2235C12.0731 10.1922 12.1218 10.166 12.1706 10.1434C12.8656 9.77236 13.6478 9.70094 14.3602 9.89081C15.1023 10.0894 15.7694 10.5701 16.1822 11.2861L18.3231 14.9946L18.3474 14.9807L18.3701 14.9667C19.1452 14.5191 20.0319 14.4285 20.8331 14.6427C21.0683 14.7054 21.2948 14.7943 21.5125 14.9093C21.6292 14.7838 21.7633 14.6724 21.9166 14.5783L21.9479 14.5591C22.7231 14.1115 23.6097 14.0209 24.411 14.2351C24.5573 14.2735 24.7001 14.324 24.8395 14.3832V6.0131H1.7854V35.0333H22.9809C22.7631 34.9061 22.5367 34.7859 22.2998 34.671L20.5091 33.8087C19.5389 33.3401 18.6975 32.7758 17.9642 32.0947C17.2465 31.4292 16.6299 30.6489 16.0969 29.7361L14.874 27.6214C14.4264 26.8428 14.3358 25.9561 14.5501 25.1549C14.7591 24.3728 15.259 23.6673 15.9993 23.2179C16.0342 23.1935 16.0707 23.1726 16.1091 23.1534L16.1075 23.1538ZM11.2442 39.6411C10.7513 39.6411 10.3524 39.2423 10.3524 38.7493C10.3524 38.2563 10.7513 37.8574 11.2442 37.8574H15.3795C15.8725 37.8574 16.2714 38.2563 16.2714 38.7493C16.2714 39.2423 15.8725 39.6411 15.3795 39.6411H11.2442ZM24.8397 4.22992V4.13585C24.8397 3.49135 24.5749 2.90433 24.1499 2.47753C23.7266 2.05076 23.1396 1.78772 22.4934 1.78772H4.13357C3.48907 1.78772 2.90205 2.05249 2.47525 2.47753C2.05023 2.90082 1.78544 3.48957 1.78544 4.13585V4.22992H24.8397ZM1.78562 36.8193V38.3348C1.78562 38.9793 2.05039 39.5663 2.47543 39.9931C2.89871 40.4198 3.48573 40.6829 4.13197 40.6829H22.4918C23.1363 40.6829 23.7233 40.4181 24.1483 39.9931C24.5733 39.5698 24.8381 38.981 24.8381 38.3348V36.8193H1.78402H1.78562Z" fill="#064E3B"/>
</svg>
